Coordinates
version=1
nRows=7
nColumns=63
inDegrees=yes

Units are S.I. units (second, meters, Newtons, ...)
If the header above contains a line with 'inDegrees', this indicates whether rotational values are in degrees (yes) or radians (no).

endheader
time	pelvis_tilt	pelvis_list	pelvis_rotation	pelvis_tx	pelvis_ty	pelvis_tz	hip_flexion_r	hip_adduction_r	hip_rotation_r	knee_angle_r	knee_angle_r_beta	ankle_angle_r	subtalar_angle_r	mtp_angle_r	hip_flexion_l	hip_adduction_l	hip_rotation_l	knee_angle_l	knee_angle_l_beta	ankle_angle_l	subtalar_angle_l	mtp_angle_l	L5_S1_Flex_Ext	L5_S1_Lat_Bending	L5_S1_axial_rotation	L4_L5_Flex_Ext	L4_L5_Lat_Bending	L4_L5_axial_rotation	L3_L4_Flex_Ext	L3_L4_Lat_Bending	L3_L4_axial_rotation	L2_L3_Flex_Ext	L2_L3_Lat_Bending	L2_L3_axial_rotation	L1_L2_Flex_Ext	L1_L2_Lat_Bending	L1_L2_axial_rotation	L1_T12_Flex_Ext	L1_T12_Lat_Bending	L1_T12_axial_rotation	Abs_r3	Abs_r2	Abs_r1	Abs_t1	Abs_t2	neck_flexion	neck_bending	neck_rotation	arm_flex_r	arm_add_r	arm_rot_r	elbow_flex_r	pro_sup_r	wrist_flex_r	wrist_dev_r	arm_flex_l	arm_add_l	arm_rot_l	elbow_flex_l	pro_sup_l	wrist_flex_l	wrist_dev_l
      0.00000000	     -3.27169518	     -3.30628131	    105.97037494	      0.03635677	      1.00423577	      0.36117315	     -9.05367655	     -1.16948804	    -16.77209061	     13.85427121	      0.24180265	     36.16175290	     13.64194002	      0.00000000	    -12.21912871	     -0.05865416	     15.86859068	      0.30890505	      0.00539141	     31.89207028	     -9.58279251	      0.00000000	     -0.00658330	      0.25218374	     -0.16555950	     -0.01222585	      0.33540437	     -0.17590697	     -0.01081571	      0.61315954	     -0.17590697	     -0.00752406	      0.61315954	     -0.14486456	     -0.00611326	      0.51425308	     -0.13451710	     -0.00376170	      0.39063261	     -0.12416963	     -0.04702388	      2.85275287	     -0.92079228	      0.00000000	      0.00000000	     19.36904570	     -3.63330575	     -6.82101983	      8.43790448	     -6.96920543	     64.23075868	     39.93813806	     21.74668744	      1.08809467	     11.28255121	     17.91801038	     -0.42648724	     79.27513998	     37.60459416	     87.56066310	     -6.15099612	     -0.17081206
      0.01818182	     -3.09519746	     -3.35180573	    105.51953559	      0.03724911	      1.00331258	      0.36025549	     -9.52482383	     -0.88080478	    -16.21877524	     12.72067488	      0.22201766	     35.90572975	     14.03497028	      0.00000000	    -12.43829865	     -0.17100274	     15.46589292	      0.33516558	      0.00584974	     31.29567385	     -9.55785629	      0.00000000	      0.01289753	      0.26363364	     -0.11561557	      0.02395200	      0.35063274	     -0.12284154	      0.02118935	      0.64099883	     -0.12284154	      0.01474059	      0.64099883	     -0.10116362	      0.01197664	      0.53760171	     -0.09393765	      0.00736965	      0.40836851	     -0.08671168	      0.09212575	      2.98227644	     -0.64301911	      0.00000000	      0.00000000	     19.31902226	     -2.48834923	     -6.90583558	      8.44313780	     -7.32955116	     64.30737055	     40.35379781	     22.06227470	      0.99047055	     10.96214512	     18.11448955	     -0.61802685	     78.84795542	     38.01344715	     87.06358673	     -5.26258283	      0.11167974
      0.03636364	     -2.96940750	     -3.24000710	    104.86520939	      0.03851392	      1.00274509	      0.35928022	     -9.99712475	     -0.48429842	    -13.49440847	     11.80405539	      0.20601963	     35.43323044	     11.74886156	      0.00000000	    -12.74700578	     -0.27282248	     13.28663045	      0.36214805	      0.00632068	     31.56910805	     -7.05985484	      0.00000000	      0.00239067	      0.27837949	     -0.04848790	      0.00443971	      0.37024472	     -0.05151839	      0.00392763	      0.67685189	     -0.05151839	      0.00273230	      0.67685189	     -0.04242691	      0.00221997	      0.56767146	     -0.03939642	      0.00136603	      0.43120983	     -0.03636593	      0.01707631	      3.14908447	     -0.26967516	      0.00000000	      0.00000000	     19.43552002	     -1.75745716	     -6.51713316	      8.60465324	     -7.38035410	     64.13050461	     40.25396238	     27.61771052	      1.01967352	      9.67051149	     17.80617248	     -0.75837238	     76.44562353	     38.43859885	     86.49467235	     -2.70464061	      1.68732161
      0.05454545	     -2.92810150	     -3.23479782	    104.44636311	      0.03923815	      1.00217285	      0.35856263	    -10.29924482	     -0.38215174	    -12.57147117	     11.20133232	      0.19550013	     35.33233296	     11.39566812	      0.00000000	    -12.86099439	     -0.27673177	     12.85615732	      0.36659402	      0.00639827	     31.57061684	     -6.79086693	      0.00000000	      0.00625776	      0.28072408	      0.01324124	      0.01162129	      0.37336302	      0.01406881	      0.01028088	      0.68255253	      0.01406881	      0.00715200	      0.68255253	      0.01158608	      0.00581096	      0.57245254	      0.01075850	      0.00357568	      0.43484160	      0.00993093	      0.04469856	      3.17560692	      0.07364378	      0.00000000	      0.00000000	     19.61593999	     -1.41980458	     -6.46810108	      8.69910732	     -7.38652183	     63.85653171	     40.46452017	     29.06078179	      0.47579134	      9.29913555	     17.82239891	     -0.84998105	     75.79733358	     38.69547556	     84.86761479	     -2.08825877	      2.26186701
      0.07272727	     -2.92370395	     -3.27849416	    104.34629664	      0.03937927	      1.00174912	      0.35834048	    -10.34852262	     -0.38478239	    -12.49663935	     11.09521149	      0.19364797	     35.43456241	     11.41849503	      0.00000000	    -12.82189132	     -0.28266328	     12.90103001	      0.35747635	      0.00623914	     31.71078384	     -6.77782159	      0.00000000	      0.01613118	      0.27984014	      0.01589403	      0.02995721	      0.37218739	      0.01688740	      0.02650191	      0.68040332	      0.01688740	      0.01843632	      0.68040332	      0.01390727	      0.01497941	      0.57065002	      0.01291390	      0.00921735	      0.43347238	      0.01192052	      0.11522338	      3.16560766	      0.08839782	      0.00000000	      0.00000000	     19.63639868	     -1.40932078	     -6.46951096	      8.91125114	     -7.28342925	     63.75840015	     40.49573973	     29.08177797	      0.46501188	      9.25469864	     17.99695700	     -0.83339523	     75.64251203	     38.67997102	     84.75981606	     -2.14006249	      2.25796440
      0.09090909	     -2.89505113	     -3.17934286	    103.84621372	      0.04016605	      1.00143046	      0.35720652	    -10.72492310	     -0.14058114	     -9.57396430	     10.44971124	      0.18238187	     34.98308204	      8.61838242	      0.00000000	    -12.97565146	     -0.29147212	     12.79679357	      0.33698375	      0.00588148	     32.02768072	     -6.97960441	      0.00000000	      0.00885354	      0.28510105	      0.10291451	      0.01644192	      0.37918439	      0.10934666	      0.01454549	      0.69319468	      0.10934666	      0.01011872	      0.69319468	      0.09005019	      0.00822140	      0.58137805	      0.08361804	      0.00505892	      0.44162152	      0.07718588	      0.06323998	      3.22512005	      0.57237961	      0.00000000	      0.00000000	     20.01691307	     -1.41608700	     -6.31749842	      8.71273217	     -6.95142374	     62.09176485	     40.20832932	     35.84546479	      0.73026827	      8.94924983	     18.01853974	     -0.91007966	     76.06062238	     38.85137570	     80.29790056	     -3.14937244	      2.23640191
      0.10909091	     -2.91072528	     -3.18296756	    103.85262373	      0.03997028	      1.00130552	      0.35688450	    -10.76834258	     -0.16261546	     -9.56042974	     10.43319394	      0.18209359	     35.02658979	      8.61958552	      0.00000000	    -12.92075574	     -0.28577939	     12.80264508	      0.31057402	      0.00542054	     32.20734084	     -7.01035233	      0.00000000	      0.01618845	      0.28495457	      0.10802254	      0.03006357	      0.37898958	      0.11477395	      0.02659600	      0.69283854	      0.11477395	      0.01850178	      0.69283854	      0.09451972	      0.01503259	      0.58107936	      0.08776831	      0.00925008	      0.44139463	      0.08101690	      0.11563248	      3.22346309	      0.60078895	      0.00000000	      0.00000000	     20.03439982	     -1.42746953	     -6.31076147	      8.83158486	     -6.84962601	     62.05502748	     40.21014873	     35.84392483	      0.71633266	      8.93547872	     18.11906834	     -0.85217945	     75.99106310	     38.84888206	     80.26193784	     -3.18604949	      2.22761989
